<?xml version="1.0" encoding="UTF-8"?>
<!--
  Rugby ball — generic sport fallback

  Sport-ball fallback (watermarks.ts), shown when a competition badge cannot be
  fetched.

  LINE ART with alpha shading, not a solid silhouette. The `mono` treatment is
  brightness(0) invert(1): it flattens colour but leaves ALPHA untouched, so the
  tonal work here survives and one file reads white on a dark card and ink on a
  light one. Nothing depends on hue.

  viewBox is the artwork's tight bounding box, so padRight is 0%.
-->
<svg xmlns="http://www.w3.org/2000/svg" viewBox="0 0 360 240" width="360" height="240" role="img" aria-label="Rugby ball">
  <defs>
    <radialGradient id="sh" cx="34%" cy="26%" r="80%">
      <stop offset="0%"   stop-color="#fff" stop-opacity="0.30"/>
      <stop offset="58%"  stop-color="#fff" stop-opacity="0.15"/>
      <stop offset="100%" stop-color="#fff" stop-opacity="0.04"/>
    </radialGradient>
  </defs>
  <g stroke-linecap="round" stroke-linejoin="round">
    <path d="M14.0 120.0 L14.9 113.5 L16.6 107.3 L19.0 101.4 L22.1 95.7 L25.8 90.4 L30.2 85.3 L35.2 80.4 L40.8 75.9 L46.9 71.6 L53.5 67.6 L60.6 63.9 L68.1 60.5 L76.0 57.3 L84.3 54.4 L92.9 51.8 L101.9 49.4 L111.0 47.4 L120.5 45.6 L130.1 44.1 L139.9 42.8 L149.8 41.9 L159.8 41.2 L169.9 40.8 L180.0 40.6 L190.1 40.8 L200.2 41.2 L210.2 41.9 L220.1 42.8 L229.9 44.1 L239.5 45.6 L249.0 47.4 L258.1 49.4 L267.1 51.8 L275.7 54.4 L284.0 57.3 L291.9 60.5 L299.4 63.9 L306.5 67.6 L313.1 71.6 L319.2 75.9 L324.8 80.4 L329.8 85.3 L334.2 90.4 L337.9 95.7 L341.0 101.4 L343.4 107.3 L345.1 113.5 L346.0 120.0 L346.0 120.0 L345.1 126.5 L343.4 132.7 L341.0 138.6 L337.9 144.3 L334.2 149.6 L329.8 154.7 L324.8 159.6 L319.2 164.1 L313.1 168.4 L306.5 172.4 L299.4 176.1 L291.9 179.5 L284.0 182.7 L275.7 185.6 L267.1 188.2 L258.1 190.6 L249.0 192.6 L239.5 194.4 L229.9 195.9 L220.1 197.2 L210.2 198.1 L200.2 198.8 L190.1 199.2 L180.0 199.4 L169.9 199.2 L159.8 198.8 L149.8 198.1 L139.9 197.2 L130.1 195.9 L120.5 194.4 L111.0 192.6 L101.9 190.6 L92.9 188.2 L84.3 185.6 L76.0 182.7 L68.1 179.5 L60.6 176.1 L53.5 172.4 L46.9 168.4 L40.8 164.1 L35.2 159.6 L30.2 154.7 L25.8 149.6 L22.1 144.3 L19.0 138.6 L16.6 132.7 L14.9 126.5 L14.0 120.0 Z" fill="#fff" fill-opacity="0.14" transform="rotate(-22 180.0 120.0)"/>
    <path d="M14.0 120.0 L14.9 113.5 L16.6 107.3 L19.0 101.4 L22.1 95.7 L25.8 90.4 L30.2 85.3 L35.2 80.4 L40.8 75.9 L46.9 71.6 L53.5 67.6 L60.6 63.9 L68.1 60.5 L76.0 57.3 L84.3 54.4 L92.9 51.8 L101.9 49.4 L111.0 47.4 L120.5 45.6 L130.1 44.1 L139.9 42.8 L149.8 41.9 L159.8 41.2 L169.9 40.8 L180.0 40.6 L190.1 40.8 L200.2 41.2 L210.2 41.9 L220.1 42.8 L229.9 44.1 L239.5 45.6 L249.0 47.4 L258.1 49.4 L267.1 51.8 L275.7 54.4 L284.0 57.3 L291.9 60.5 L299.4 63.9 L306.5 67.6 L313.1 71.6 L319.2 75.9 L324.8 80.4 L329.8 85.3 L334.2 90.4 L337.9 95.7 L341.0 101.4 L343.4 107.3 L345.1 113.5 L346.0 120.0 L346.0 120.0 L345.1 126.5 L343.4 132.7 L341.0 138.6 L337.9 144.3 L334.2 149.6 L329.8 154.7 L324.8 159.6 L319.2 164.1 L313.1 168.4 L306.5 172.4 L299.4 176.1 L291.9 179.5 L284.0 182.7 L275.7 185.6 L267.1 188.2 L258.1 190.6 L249.0 192.6 L239.5 194.4 L229.9 195.9 L220.1 197.2 L210.2 198.1 L200.2 198.8 L190.1 199.2 L180.0 199.4 L169.9 199.2 L159.8 198.8 L149.8 198.1 L139.9 197.2 L130.1 195.9 L120.5 194.4 L111.0 192.6 L101.9 190.6 L92.9 188.2 L84.3 185.6 L76.0 182.7 L68.1 179.5 L60.6 176.1 L53.5 172.4 L46.9 168.4 L40.8 164.1 L35.2 159.6 L30.2 154.7 L25.8 149.6 L22.1 144.3 L19.0 138.6 L16.6 132.7 L14.9 126.5 L14.0 120.0 Z" fill="none" stroke="#fff" stroke-width="6.5" stroke-opacity="0.95" transform="rotate(-22 180.0 120.0)"/>
    <path d="M57.2 120.0 L302.8 120.0" fill="none" stroke="#fff" stroke-width="3.2" stroke-opacity="0.75" transform="rotate(-22 180.0 120.0)"/>
    <path d="M154.0 100.0 L154.0 140.0" fill="none" stroke="#fff" stroke-width="3.2" stroke-opacity="0.75" transform="rotate(-22 180.0 120.0)"/>
    <path d="M180.0 100.0 L180.0 140.0" fill="none" stroke="#fff" stroke-width="3.2" stroke-opacity="0.75" transform="rotate(-22 180.0 120.0)"/>
    <path d="M206.0 100.0 L206.0 140.0" fill="none" stroke="#fff" stroke-width="3.2" stroke-opacity="0.75" transform="rotate(-22 180.0 120.0)"/>
  </g>
</svg>
